<svg width="1080" height="1080" viewBox="0 0 1080 1080" fill="none" xmlns="http://www.w3.org/2000/svg">
<rect x="1.5" y="1.5" width="1077" height="1077" fill="white"/>
<mask id="mask0_54_38" style="mask-type:alpha" maskUnits="userSpaceOnUse" x="0" y="0" width="647" height="647">
<rect width="647" height="647" fill="#C4C4C4"/>
</mask>
<g mask="url(#mask0_54_38)">
<g opacity="0.25" filter="url(#filter0_f_54_38)">
<path d="M202.719 -128.616C416.466 85.1307 507.43 340.718 405.894 442.255C304.358 543.791 48.7702 452.826 -164.977 239.079C-378.724 25.3323 -469.689 -230.255 -368.152 -331.792C-266.616 -433.328 -11.0283 -342.363 202.719 -128.616Z" fill="url(#paint0_linear_54_38)"/>
</g>
</g>
<path d="M310 71.1158C310 67.7381 312.675 65 315.974 65H367.519C370.818 65 373.493 67.7381 373.493 71.1158V123.884C373.493 127.262 370.818 130 367.519 130H315.974C312.675 130 310 127.262 310 123.884V71.1158Z" fill="black"/>
<path d="M420.631 80.9089V114.097C420.631 114.35 420.445 114.603 420.135 114.603H416.727C415.178 114.603 413.691 113.781 412.823 112.453L397.455 88.2419L397.951 100.316V114.16C397.951 114.413 397.765 114.666 397.455 114.666H392.994C392.746 114.666 392.498 114.476 392.498 114.16V80.9089C392.498 80.6561 392.684 80.4032 392.994 80.4032H396.34C397.889 80.4032 399.376 81.225 400.244 82.5525L415.612 106.701L415.116 94.6266V80.9089C415.116 80.6561 415.302 80.4032 415.612 80.4032H420.073C420.445 80.4032 420.631 80.5928 420.631 80.9089Z" fill="black"/>
<path d="M458.211 114.54H453.502C453.192 114.54 452.943 114.223 453.068 113.907L465.586 80.8457C465.709 80.5928 465.957 80.4032 466.205 80.4032H472.154C472.463 80.4032 472.712 80.5928 472.773 80.8457L485.353 113.907C485.477 114.223 485.228 114.54 484.919 114.54H480.21C480.023 114.54 479.838 114.413 479.776 114.223L469.675 87.0408C469.552 86.6616 468.931 86.6616 468.807 87.0408L458.707 114.223C458.583 114.413 458.397 114.54 458.211 114.54Z" fill="black"/>
<path d="M515.497 113.781L506.077 101.517C511.407 100.506 514.505 96.8392 514.505 91.2131C514.505 84.765 510.416 80.4032 503.103 80.4032H489.966C489.595 80.4032 489.285 80.7193 489.285 81.0986C489.285 83.6271 491.268 85.6501 493.746 85.6501H502.607C507.007 85.6501 509.114 87.9259 509.114 91.2762C509.114 94.6266 507.069 96.9024 502.607 96.9024H490.091C489.719 96.9024 489.408 97.2185 489.408 97.5978V114.034C489.408 114.287 489.595 114.54 489.904 114.54H494.366C494.613 114.54 494.862 114.35 494.862 114.034V101.833H500.005L508.184 112.706C509.052 113.907 510.416 114.54 511.903 114.54H515.31C515.559 114.54 515.744 114.097 515.497 113.781Z" fill="black"/>
<path d="M448.515 80.4032H427.757C427.385 80.4032 427.137 80.6561 427.137 81.0353C427.137 83.564 429.182 85.6501 431.661 85.6501H448.515C448.764 85.6501 449.011 85.4604 449.011 85.1443V80.8457C448.949 80.5928 448.764 80.4032 448.515 80.4032ZM448.515 109.293H433.024C432.776 109.293 432.528 109.103 432.528 108.787V100.253C432.528 100 432.714 99.7471 433.024 99.7471H447.338C447.587 99.7471 447.834 99.5575 447.834 99.2414V94.9428C447.834 94.6899 447.649 94.437 447.338 94.437H427.819C427.447 94.437 427.137 94.7531 427.137 95.1324V113.781C427.137 114.16 427.447 114.476 427.819 114.476H448.515C448.764 114.476 449.011 114.287 449.011 113.971V109.672C448.949 109.482 448.764 109.293 448.515 109.293Z" fill="black"/>
<path d="M353.07 80.2319L345.229 92.1574C344.687 92.9695 345.729 93.9526 346.48 93.2687L354.196 86.387C354.404 86.216 354.696 86.3443 354.696 86.6435V108.144C354.696 108.443 354.321 108.571 354.154 108.357L330.799 79.719C330.048 78.7786 328.964 78.2657 327.754 78.2657H326.92C324.751 78.2657 322.958 80.1037 322.958 82.3691V112.632C322.958 114.897 324.751 116.735 326.962 116.735C328.338 116.735 329.631 116.008 330.382 114.769L338.222 102.843C338.765 102.031 337.722 101.048 336.971 101.732L329.255 108.571C329.047 108.742 328.755 108.614 328.755 108.315V86.8572C328.755 86.558 329.13 86.4297 329.297 86.6435L352.653 115.282C353.404 116.222 354.53 116.735 355.697 116.735H356.531C358.742 116.735 360.535 114.897 360.535 112.632V82.3691C360.494 80.1037 358.7 78.2657 356.49 78.2657C355.113 78.2657 353.821 78.9923 353.07 80.2319Z" fill="white"/>
<path d="M562.969 80.88V101.339C562.969 105.73 561.782 109.031 559.407 111.242C557.032 113.454 553.574 114.56 549.031 114.56C544.556 114.56 541.115 113.454 538.706 111.242C536.331 109.031 535.144 105.73 535.144 101.339V80.88H540.667V100.686C540.667 103.836 541.339 106.165 542.681 107.673C544.057 109.148 546.174 109.885 549.031 109.885C551.922 109.885 554.038 109.148 555.38 107.673C556.757 106.165 557.445 103.836 557.445 100.686V80.88H562.969Z" fill="black"/>
<path d="M570.407 114.058V88.923H575.311L575.57 93.2462C576.43 91.5705 577.617 90.3473 579.132 89.5765C580.68 88.8058 582.401 88.4204 584.294 88.4204C586.118 88.4204 587.753 88.7722 589.199 89.476C590.678 90.1463 591.849 91.1852 592.709 92.5927C593.569 93.9667 594 95.6926 594 97.7704V114.058H588.476V99.4293C588.476 96.9493 587.942 95.2402 586.875 94.3018C585.843 93.33 584.535 92.844 582.952 92.844C581.816 92.844 580.715 93.0954 579.648 93.5981C578.581 94.1008 577.686 94.9386 576.964 96.1115C576.275 97.2509 575.931 98.7758 575.931 100.686V114.058H570.407Z" fill="black"/>
<path d="M604.125 84.7005C602.921 84.7005 601.991 84.4156 601.338 83.8459C600.718 83.2427 600.408 82.4048 600.408 81.3324C600.408 80.26 600.718 79.439 601.338 78.8692C601.991 78.2995 602.921 78.0147 604.125 78.0147C605.295 78.0147 606.19 78.2995 606.81 78.8692C607.464 79.439 607.791 80.26 607.791 81.3324C607.791 82.4048 607.464 83.2427 606.81 83.8459C606.19 84.4156 605.295 84.7005 604.125 84.7005ZM606.861 88.923V114.058H601.338V88.923H606.861Z" fill="black"/>
<path d="M631.456 88.923H637.238L626.965 114.058H620.925L610.6 88.923H616.691L623.97 109.383L631.456 88.923Z" fill="black"/>
<path d="M652.121 114.56C649.54 114.56 647.268 114.041 645.307 113.002C643.379 111.963 641.865 110.472 640.764 108.528C639.662 106.551 639.112 104.205 639.112 101.49C639.112 98.7758 639.645 96.4466 640.712 94.5029C641.813 92.5257 643.311 91.0176 645.203 89.9787C647.131 88.9398 649.333 88.4204 651.811 88.4204C654.324 88.4204 656.458 88.923 658.213 89.9284C659.968 90.9338 661.31 92.3078 662.24 94.0505C663.169 95.7931 663.633 97.7704 663.633 99.9822C663.633 100.619 663.616 101.205 663.582 101.742C663.547 102.278 663.496 102.73 663.427 103.099H644.532C644.773 105.445 645.548 107.238 646.855 108.478C648.198 109.684 649.919 110.287 652.018 110.287C653.739 110.287 655.133 109.969 656.2 109.332C657.266 108.696 658.11 107.807 658.729 106.668L663.117 108.679C662.222 110.522 660.794 111.963 658.832 113.002C656.905 114.041 654.668 114.56 652.121 114.56ZM651.708 92.6932C649.815 92.6932 648.249 93.2294 647.01 94.3018C645.806 95.3742 645.031 96.9326 644.687 98.9769H658.265C658.127 96.9661 657.473 95.4245 656.303 94.3521C655.133 93.2462 653.601 92.6932 651.708 92.6932Z" fill="black"/>
<path d="M669.577 114.058V88.923H674.275L674.791 93.4473C676.202 90.096 678.904 88.4204 682.896 88.4204C683.412 88.4204 683.928 88.4706 684.445 88.5712C684.961 88.6382 685.391 88.7555 685.735 88.923L684.961 93.6483C684.582 93.5143 684.152 93.4137 683.67 93.3467C683.223 93.2462 682.603 93.1959 681.812 93.1959C680.71 93.1959 679.644 93.4808 678.611 94.0505C677.613 94.5867 676.77 95.4245 676.081 96.5639C675.428 97.6699 675.101 99.0606 675.101 100.736V114.058H669.577Z" fill="black"/>
<path d="M698.872 114.56C696.29 114.56 693.933 114.074 691.799 113.102C689.665 112.131 687.979 110.757 686.74 108.98L690.56 105.763C691.317 107.137 692.401 108.243 693.812 109.081C695.258 109.885 696.979 110.287 698.975 110.287C700.558 110.287 701.814 110.019 702.744 109.483C703.673 108.947 704.137 108.193 704.137 107.221C704.137 106.584 703.914 106.031 703.466 105.562C703.053 105.059 702.244 104.674 701.04 104.406L695.619 103.3C692.866 102.764 690.904 101.892 689.734 100.686C688.564 99.4795 687.979 97.9715 687.979 96.1618C687.979 94.7878 688.392 93.5143 689.218 92.3413C690.078 91.1684 691.3 90.23 692.883 89.5263C694.466 88.789 696.376 88.4204 698.614 88.4204C701.16 88.4204 703.346 88.8728 705.17 89.7776C707.028 90.649 708.439 91.9057 709.403 93.5478L705.583 96.6645C704.895 95.324 703.914 94.3353 702.64 93.6986C701.401 93.0284 700.093 92.6932 698.717 92.6932C697.03 92.6932 695.723 92.9948 694.793 93.5981C693.899 94.1678 693.451 94.9218 693.451 95.8602C693.451 96.4969 693.709 97.0834 694.225 97.6196C694.742 98.1223 695.671 98.5077 697.013 98.7758L702.898 99.9822C705.376 100.451 707.114 101.256 708.112 102.395C709.145 103.501 709.661 104.858 709.661 106.467C709.661 108.88 708.698 110.84 706.77 112.348C704.843 113.823 702.21 114.56 698.872 114.56Z" fill="black"/>
<path d="M718.143 84.7005C716.938 84.7005 716.009 84.4156 715.355 83.8459C714.736 83.2427 714.426 82.4048 714.426 81.3324C714.426 80.26 714.736 79.439 715.355 78.8692C716.009 78.2995 716.938 78.0147 718.143 78.0147C719.313 78.0147 720.208 78.2995 720.827 78.8692C721.481 79.439 721.808 80.26 721.808 81.3324C721.808 82.4048 721.481 83.2427 720.827 83.8459C720.208 84.4156 719.313 84.7005 718.143 84.7005ZM720.879 88.923V114.058H715.355V88.923H720.879Z" fill="black"/>
<path d="M744.906 88.923V93.1456H736.026V106.517C736.026 107.724 736.371 108.628 737.059 109.232C737.747 109.801 738.642 110.086 739.743 110.086C740.707 110.086 741.516 109.952 742.17 109.684C742.858 109.383 743.495 108.98 744.08 108.478L745.319 112.399C744.527 113.069 743.546 113.605 742.376 114.007C741.241 114.376 739.967 114.56 738.556 114.56C736.285 114.56 734.374 114.024 732.826 112.952C731.277 111.846 730.503 110.003 730.503 107.422V93.1456H725.547V88.923H730.503V83.0416L736.026 81.5335V88.923H744.906Z" fill="black"/>
<path d="M772 88.923L760.694 117.023C759.558 119.939 758.268 121.967 756.822 123.106C755.377 124.279 753.518 124.865 751.247 124.865C749.973 124.865 748.82 124.715 747.788 124.413C746.756 124.111 745.843 123.676 745.052 123.106L746.394 118.934C747.633 120.006 749.13 120.542 750.885 120.542C751.815 120.542 752.641 120.308 753.363 119.838C754.121 119.369 754.792 118.397 755.377 116.923L756.513 114.208L753.776 107.975L745.723 88.923H751.918L757.648 104.708L759.145 109.433L760.849 104.255L766.27 88.923H772Z" fill="black"/>
<rect x="65" y="986.031" width="950" height="50" fill="#F5F5F5"/>

<line x1="65" y1="378.031" x2="1013" y2="378.031" stroke="black" stroke-opacity="0.24" stroke-width="2"/>
<rect x="65" y="650" width="950" height="112" fill="#F9E5C4"/>
<rect x="1.5" y="1.5" width="1077" height="1077" stroke="#5E94F4" stroke-width="3"/>
<defs>
<filter id="filter0_f_54_38" x="-609.7" y="-573.339" width="1257.14" height="1257.14" filterUnits="userSpaceOnUse" color-interpolation-filters="sRGB">
<feFlood flood-opacity="0" result="BackgroundImageFix"/>
<feBlend mode="normal" in="SourceGraphic" in2="BackgroundImageFix" result="shape"/>
<feGaussianBlur stdDeviation="100" result="effect1_foregroundBlur_54_38"/>
</filter>
<linearGradient id="paint0_linear_54_38" x1="-382.766" y1="-346.405" x2="420.508" y2="456.868" gradientUnits="userSpaceOnUse">
<stop stop-color="#AFD060"/>
<stop offset="1" stop-color="#FCC368"/>
</linearGradient>
</defs>
</svg>
