<svg width="1080" height="1080" viewBox="0 0 1080 1080" fill="none" xmlns="http://www.w3.org/2000/svg">
<rect x="1.5" y="1.5" width="1077" height="1077" fill="white"/>
<mask id="mask0_54_62" style="mask-type:alpha" maskUnits="userSpaceOnUse" x="0" y="0" width="647" height="647">
<rect width="647" height="647" fill="#C4C4C4"/>
</mask>
<g mask="url(#mask0_54_62)">
<g opacity="0.25" filter="url(#filter0_f_54_62)">
<path d="M-164.977 239.079C-378.724 25.3321 -469.689 -230.255 -368.152 -331.792C-266.616 -433.328 -11.0284 -342.363 202.719 -128.616C416.466 85.1306 507.43 340.718 405.894 442.254C304.358 543.791 48.77 452.826 -164.977 239.079Z" fill="url(#paint0_linear_54_62)"/>
</g>
</g>
<path d="M310 71.1158C310 67.7381 312.675 65 315.974 65H367.519C370.818 65 373.493 67.7381 373.493 71.1158V123.884C373.493 127.262 370.818 130 367.519 130H315.974C312.675 130 310 127.262 310 123.884V71.1158Z" fill="black"/>
<path d="M420.631 80.9089V114.097C420.631 114.35 420.445 114.603 420.135 114.603H416.727C415.178 114.603 413.691 113.781 412.823 112.453L397.455 88.2419L397.951 100.316V114.16C397.951 114.413 397.765 114.666 397.455 114.666H392.994C392.746 114.666 392.498 114.476 392.498 114.16V80.9089C392.498 80.6561 392.684 80.4032 392.994 80.4032H396.34C397.889 80.4032 399.376 81.225 400.244 82.5525L415.612 106.701L415.116 94.6266V80.9089C415.116 80.6561 415.302 80.4032 415.612 80.4032H420.073C420.445 80.4032 420.631 80.5928 420.631 80.9089Z" fill="black"/>
<path d="M458.211 114.54H453.502C453.192 114.54 452.943 114.223 453.068 113.907L465.586 80.8457C465.709 80.5928 465.957 80.4032 466.205 80.4032H472.154C472.463 80.4032 472.712 80.5928 472.773 80.8457L485.353 113.907C485.477 114.223 485.228 114.54 484.919 114.54H480.21C480.023 114.54 479.838 114.413 479.776 114.223L469.675 87.0408C469.552 86.6616 468.931 86.6616 468.807 87.0408L458.707 114.223C458.583 114.413 458.397 114.54 458.211 114.54Z" fill="black"/>
<path d="M515.497 113.781L506.077 101.517C511.407 100.506 514.505 96.8392 514.505 91.2131C514.505 84.765 510.416 80.4032 503.103 80.4032H489.966C489.595 80.4032 489.285 80.7193 489.285 81.0986C489.285 83.6271 491.268 85.6501 493.746 85.6501H502.607C507.007 85.6501 509.114 87.9259 509.114 91.2762C509.114 94.6266 507.069 96.9024 502.607 96.9024H490.091C489.719 96.9024 489.408 97.2185 489.408 97.5978V114.034C489.408 114.287 489.595 114.54 489.904 114.54H494.366C494.613 114.54 494.862 114.35 494.862 114.034V101.833H500.005L508.184 112.706C509.052 113.907 510.416 114.54 511.903 114.54H515.31C515.559 114.54 515.744 114.097 515.497 113.781Z" fill="black"/>
<path d="M448.515 80.4032H427.757C427.385 80.4032 427.137 80.6561 427.137 81.0353C427.137 83.564 429.182 85.6501 431.661 85.6501H448.515C448.764 85.6501 449.011 85.4604 449.011 85.1443V80.8457C448.949 80.5928 448.764 80.4032 448.515 80.4032ZM448.515 109.293H433.024C432.776 109.293 432.528 109.103 432.528 108.787V100.253C432.528 100 432.714 99.7471 433.024 99.7471H447.338C447.587 99.7471 447.834 99.5575 447.834 99.2414V94.9428C447.834 94.6899 447.649 94.437 447.338 94.437H427.819C427.447 94.437 427.137 94.7531 427.137 95.1324V113.781C427.137 114.16 427.447 114.476 427.819 114.476H448.515C448.764 114.476 449.011 114.287 449.011 113.971V109.672C448.949 109.482 448.764 109.293 448.515 109.293Z" fill="black"/>
<path d="M353.07 80.2319L345.229 92.1574C344.687 92.9695 345.729 93.9526 346.48 93.2687L354.196 86.387C354.404 86.216 354.696 86.3443 354.696 86.6435V108.144C354.696 108.443 354.321 108.571 354.154 108.357L330.799 79.719C330.048 78.7786 328.964 78.2657 327.754 78.2657H326.92C324.751 78.2657 322.958 80.1037 322.958 82.3691V112.632C322.958 114.897 324.751 116.735 326.962 116.735C328.338 116.735 329.631 116.008 330.382 114.769L338.222 102.843C338.765 102.031 337.722 101.048 336.971 101.732L329.255 108.571C329.047 108.742 328.755 108.614 328.755 108.315V86.8572C328.755 86.558 329.13 86.4297 329.297 86.6435L352.653 115.282C353.404 116.222 354.53 116.735 355.697 116.735H356.531C358.742 116.735 360.535 114.897 360.535 112.632V82.3691C360.494 80.1037 358.7 78.2657 356.49 78.2657C355.113 78.2657 353.821 78.9923 353.07 80.2319Z" fill="white"/>
<path d="M562.969 80.88V101.339C562.969 105.73 561.782 109.031 559.407 111.242C557.032 113.454 553.574 114.56 549.031 114.56C544.556 114.56 541.115 113.454 538.706 111.242C536.331 109.031 535.144 105.73 535.144 101.339V80.88H540.667V100.686C540.667 103.836 541.339 106.165 542.681 107.673C544.057 109.148 546.174 109.885 549.031 109.885C551.922 109.885 554.038 109.148 555.38 107.673C556.757 106.165 557.445 103.836 557.445 100.686V80.88H562.969Z" fill="black"/>
<path d="M570.407 114.058V88.923H575.311L575.57 93.2462C576.43 91.5705 577.617 90.3473 579.132 89.5765C580.68 88.8058 582.401 88.4204 584.294 88.4204C586.118 88.4204 587.753 88.7722 589.199 89.476C590.678 90.1463 591.849 91.1852 592.709 92.5927C593.569 93.9667 594 95.6926 594 97.7704V114.058H588.476V99.4293C588.476 96.9493 587.942 95.2402 586.875 94.3018C585.843 93.33 584.535 92.844 582.952 92.844C581.816 92.844 580.715 93.0954 579.648 93.5981C578.581 94.1008 577.686 94.9386 576.964 96.1115C576.275 97.2509 575.931 98.7758 575.931 100.686V114.058H570.407Z" fill="black"/>
<path d="M604.125 84.7005C602.921 84.7005 601.991 84.4156 601.338 83.8459C600.718 83.2427 600.408 82.4048 600.408 81.3324C600.408 80.26 600.718 79.439 601.338 78.8692C601.991 78.2995 602.921 78.0147 604.125 78.0147C605.295 78.0147 606.19 78.2995 606.81 78.8692C607.464 79.439 607.791 80.26 607.791 81.3324C607.791 82.4048 607.464 83.2427 606.81 83.8459C606.19 84.4156 605.295 84.7005 604.125 84.7005ZM606.861 88.923V114.058H601.338V88.923H606.861Z" fill="black"/>
<path d="M631.456 88.923H637.238L626.965 114.058H620.925L610.6 88.923H616.691L623.97 109.383L631.456 88.923Z" fill="black"/>
<path d="M652.121 114.56C649.54 114.56 647.268 114.041 645.307 113.002C643.379 111.963 641.865 110.472 640.764 108.528C639.662 106.551 639.112 104.205 639.112 101.49C639.112 98.7758 639.645 96.4466 640.712 94.5029C641.813 92.5257 643.311 91.0176 645.203 89.9787C647.131 88.9398 649.333 88.4204 651.811 88.4204C654.324 88.4204 656.458 88.923 658.213 89.9284C659.968 90.9338 661.31 92.3078 662.24 94.0505C663.169 95.7931 663.633 97.7704 663.633 99.9822C663.633 100.619 663.616 101.205 663.582 101.742C663.547 102.278 663.496 102.73 663.427 103.099H644.532C644.773 105.445 645.548 107.238 646.855 108.478C648.198 109.684 649.919 110.287 652.018 110.287C653.739 110.287 655.133 109.969 656.2 109.332C657.266 108.696 658.11 107.807 658.729 106.668L663.117 108.679C662.222 110.522 660.794 111.963 658.832 113.002C656.905 114.041 654.668 114.56 652.121 114.56ZM651.708 92.6932C649.815 92.6932 648.249 93.2294 647.01 94.3018C645.806 95.3742 645.031 96.9326 644.687 98.9769H658.265C658.127 96.9661 657.473 95.4245 656.303 94.3521C655.133 93.2462 653.601 92.6932 651.708 92.6932Z" fill="black"/>
<path d="M669.577 114.058V88.923H674.275L674.791 93.4473C676.202 90.096 678.904 88.4204 682.896 88.4204C683.412 88.4204 683.928 88.4706 684.445 88.5712C684.961 88.6382 685.391 88.7555 685.735 88.923L684.961 93.6483C684.582 93.5143 684.152 93.4137 683.67 93.3467C683.223 93.2462 682.603 93.1959 681.812 93.1959C680.71 93.1959 679.644 93.4808 678.611 94.0505C677.613 94.5867 676.77 95.4245 676.081 96.5639C675.428 97.6699 675.101 99.0606 675.101 100.736V114.058H669.577Z" fill="black"/>
<path d="M698.872 114.56C696.29 114.56 693.933 114.074 691.799 113.102C689.665 112.131 687.979 110.757 686.74 108.98L690.56 105.763C691.317 107.137 692.401 108.243 693.812 109.081C695.258 109.885 696.979 110.287 698.975 110.287C700.558 110.287 701.814 110.019 702.744 109.483C703.673 108.947 704.137 108.193 704.137 107.221C704.137 106.584 703.914 106.031 703.466 105.562C703.053 105.059 702.244 104.674 701.04 104.406L695.619 103.3C692.866 102.764 690.904 101.892 689.734 100.686C688.564 99.4795 687.979 97.9715 687.979 96.1618C687.979 94.7878 688.392 93.5143 689.218 92.3413C690.078 91.1684 691.3 90.23 692.883 89.5263C694.466 88.789 696.376 88.4204 698.614 88.4204C701.16 88.4204 703.346 88.8728 705.17 89.7776C707.028 90.649 708.439 91.9057 709.403 93.5478L705.583 96.6645C704.895 95.324 703.914 94.3353 702.64 93.6986C701.401 93.0284 700.093 92.6932 698.717 92.6932C697.03 92.6932 695.723 92.9948 694.793 93.5981C693.899 94.1678 693.451 94.9218 693.451 95.8602C693.451 96.4969 693.709 97.0834 694.225 97.6196C694.742 98.1223 695.671 98.5077 697.013 98.7758L702.898 99.9822C705.376 100.451 707.114 101.256 708.112 102.395C709.145 103.501 709.661 104.858 709.661 106.467C709.661 108.88 708.698 110.84 706.77 112.348C704.843 113.823 702.21 114.56 698.872 114.56Z" fill="black"/>
<path d="M718.143 84.7005C716.938 84.7005 716.009 84.4156 715.355 83.8459C714.736 83.2427 714.426 82.4048 714.426 81.3324C714.426 80.26 714.736 79.439 715.355 78.8692C716.009 78.2995 716.938 78.0147 718.143 78.0147C719.313 78.0147 720.208 78.2995 720.827 78.8692C721.481 79.439 721.808 80.26 721.808 81.3324C721.808 82.4048 721.481 83.2427 720.827 83.8459C720.208 84.4156 719.313 84.7005 718.143 84.7005ZM720.879 88.923V114.058H715.355V88.923H720.879Z" fill="black"/>
<path d="M744.906 88.923V93.1456H736.026V106.517C736.026 107.724 736.371 108.628 737.059 109.232C737.747 109.801 738.642 110.086 739.743 110.086C740.707 110.086 741.516 109.952 742.17 109.684C742.858 109.383 743.495 108.98 744.08 108.478L745.319 112.399C744.527 113.069 743.546 113.605 742.376 114.007C741.241 114.376 739.967 114.56 738.556 114.56C736.285 114.56 734.374 114.024 732.826 112.952C731.277 111.846 730.503 110.003 730.503 107.422V93.1456H725.547V88.923H730.503V83.0416L736.026 81.5335V88.923H744.906Z" fill="black"/>
<path d="M772 88.923L760.694 117.023C759.558 119.939 758.268 121.967 756.822 123.106C755.377 124.279 753.518 124.865 751.247 124.865C749.973 124.865 748.82 124.715 747.788 124.413C746.756 124.111 745.843 123.676 745.052 123.106L746.394 118.934C747.633 120.006 749.13 120.542 750.885 120.542C751.815 120.542 752.641 120.308 753.363 119.838C754.121 119.369 754.792 118.397 755.377 116.923L756.513 114.208L753.776 107.975L745.723 88.923H751.918L757.648 104.708L759.145 109.433L760.849 104.255L766.27 88.923H772Z" fill="black"/>
<rect x="65" y="986.031" width="950" height="50" fill="#F5F5F5"/>
<path d="M742.948 836.751V818.031H745.262V836.751H742.948Z" fill="#757575"/>
<path d="M753.947 837.128C752.274 837.128 750.901 836.764 749.826 836.036C748.76 835.3 748.106 834.273 747.863 832.955L750.229 832.578C750.42 833.341 750.857 833.948 751.542 834.398C752.227 834.84 753.076 835.061 754.09 835.061C755.052 835.061 755.806 834.862 756.352 834.463C756.898 834.065 757.171 833.523 757.171 832.838C757.171 832.44 757.08 832.119 756.898 831.876C756.716 831.625 756.339 831.391 755.767 831.174C755.204 830.958 754.35 830.698 753.206 830.394C751.967 830.065 750.992 829.723 750.281 829.367C749.57 829.012 749.063 828.6 748.76 828.132C748.457 827.664 748.305 827.097 748.305 826.429C748.305 825.606 748.53 824.887 748.981 824.271C749.432 823.647 750.06 823.166 750.866 822.828C751.681 822.49 752.625 822.321 753.7 822.321C754.766 822.321 755.719 822.49 756.56 822.828C757.401 823.166 758.077 823.647 758.588 824.271C759.108 824.887 759.416 825.606 759.511 826.429L757.145 826.858C757.032 826.104 756.668 825.511 756.053 825.077C755.446 824.644 754.662 824.414 753.7 824.388C752.79 824.354 752.049 824.514 751.477 824.869C750.914 825.225 750.632 825.706 750.632 826.312C750.632 826.65 750.736 826.941 750.944 827.183C751.161 827.426 751.555 827.656 752.127 827.872C752.708 828.089 753.548 828.336 754.649 828.613C755.888 828.925 756.863 829.268 757.574 829.64C758.293 830.004 758.805 830.438 759.108 830.94C759.411 831.434 759.563 832.045 759.563 832.773C759.563 834.125 759.065 835.191 758.068 835.971C757.071 836.743 755.698 837.128 753.947 837.128Z" fill="#757575"/>
<path d="M767.214 837.128C765.541 837.128 764.168 836.764 763.093 836.036C762.027 835.3 761.373 834.273 761.13 832.955L763.496 832.578C763.687 833.341 764.124 833.948 764.809 834.398C765.494 834.84 766.343 835.061 767.357 835.061C768.319 835.061 769.073 834.862 769.619 834.463C770.165 834.065 770.438 833.523 770.438 832.838C770.438 832.44 770.347 832.119 770.165 831.876C769.983 831.625 769.606 831.391 769.034 831.174C768.471 830.958 767.617 830.698 766.473 830.394C765.234 830.065 764.259 829.723 763.548 829.367C762.837 829.012 762.33 828.6 762.027 828.132C761.724 827.664 761.572 827.097 761.572 826.429C761.572 825.606 761.797 824.887 762.248 824.271C762.699 823.647 763.327 823.166 764.133 822.828C764.948 822.49 765.892 822.321 766.967 822.321C768.033 822.321 768.986 822.49 769.827 822.828C770.668 823.166 771.344 823.647 771.855 824.271C772.375 824.887 772.683 825.606 772.778 826.429L770.412 826.858C770.299 826.104 769.935 825.511 769.32 825.077C768.713 824.644 767.929 824.414 766.967 824.388C766.057 824.354 765.316 824.514 764.744 824.869C764.181 825.225 763.899 825.706 763.899 826.312C763.899 826.65 764.003 826.941 764.211 827.183C764.428 827.426 764.822 827.656 765.394 827.872C765.975 828.089 766.815 828.336 767.916 828.613C769.155 828.925 770.13 829.268 770.841 829.64C771.56 830.004 772.072 830.438 772.375 830.94C772.678 831.434 772.83 832.045 772.83 832.773C772.83 834.125 772.332 835.191 771.335 835.971C770.338 836.743 768.965 837.128 767.214 837.128Z" fill="#757575"/>
<path d="M780.507 837.115C779.606 837.115 778.83 836.972 778.18 836.686C777.539 836.4 777.006 836.019 776.581 835.542C776.156 835.066 775.823 834.537 775.58 833.956C775.337 833.376 775.164 832.782 775.06 832.175C774.965 831.569 774.917 831.001 774.917 830.472V822.711H777.257V829.744C777.257 830.403 777.318 831.04 777.439 831.655C777.56 832.271 777.764 832.825 778.05 833.319C778.345 833.813 778.735 834.203 779.22 834.489C779.714 834.775 780.329 834.918 781.066 834.918C781.647 834.918 782.175 834.819 782.652 834.619C783.129 834.42 783.536 834.125 783.874 833.735C784.212 833.337 784.472 832.834 784.654 832.227C784.836 831.621 784.927 830.914 784.927 830.108L786.448 830.576C786.448 831.928 786.201 833.094 785.707 834.073C785.222 835.053 784.533 835.807 783.64 836.335C782.756 836.855 781.712 837.115 780.507 837.115ZM785.187 836.751V832.994H784.927V822.711H787.254V836.751H785.187Z" fill="#757575"/>
<path d="M796.458 837.141C795.08 837.141 793.875 836.838 792.844 836.231C791.821 835.616 791.024 834.762 790.452 833.67C789.88 832.57 789.594 831.287 789.594 829.822C789.594 828.288 789.876 826.962 790.439 825.844C791.002 824.718 791.787 823.851 792.792 823.244C793.806 822.629 794.993 822.321 796.354 822.321C797.767 822.321 798.967 822.646 799.955 823.296C800.952 823.946 801.697 824.874 802.191 826.078C802.694 827.283 802.91 828.717 802.841 830.381H800.501V829.549C800.475 827.825 800.124 826.538 799.448 825.688C798.772 824.83 797.767 824.401 796.432 824.401C795.002 824.401 793.914 824.861 793.169 825.779C792.424 826.698 792.051 828.015 792.051 829.731C792.051 831.387 792.424 832.669 793.169 833.579C793.914 834.489 794.976 834.944 796.354 834.944C797.281 834.944 798.087 834.732 798.772 834.307C799.457 833.883 799.994 833.272 800.384 832.474L802.607 833.241C802.061 834.481 801.238 835.443 800.137 836.127C799.045 836.803 797.819 837.141 796.458 837.141ZM791.271 830.381V828.522H801.645V830.381H791.271Z" fill="#757575"/>
<path d="M810.727 837.141C809.419 837.141 808.296 836.816 807.36 836.166C806.424 835.508 805.701 834.619 805.189 833.501C804.687 832.383 804.435 831.122 804.435 829.718C804.435 828.314 804.687 827.053 805.189 825.935C805.701 824.817 806.424 823.938 807.36 823.296C808.296 822.646 809.414 822.321 810.714 822.321C812.04 822.321 813.154 822.642 814.055 823.283C814.957 823.925 815.637 824.804 816.096 825.922C816.564 827.04 816.798 828.306 816.798 829.718C816.798 831.114 816.564 832.375 816.096 833.501C815.637 834.619 814.957 835.508 814.055 836.166C813.154 836.816 812.045 837.141 810.727 837.141ZM811.013 835.022C811.958 835.022 812.734 834.797 813.34 834.346C813.947 833.887 814.393 833.259 814.679 832.461C814.974 831.655 815.121 830.741 815.121 829.718C815.121 828.678 814.974 827.764 814.679 826.975C814.393 826.178 813.951 825.558 813.353 825.116C812.755 824.666 811.997 824.44 811.078 824.44C810.125 824.44 809.336 824.674 808.712 825.142C808.097 825.61 807.638 826.243 807.334 827.04C807.04 827.838 806.892 828.73 806.892 829.718C806.892 830.715 807.044 831.616 807.347 832.422C807.651 833.22 808.106 833.852 808.712 834.32C809.328 834.788 810.095 835.022 811.013 835.022ZM815.121 836.751V826.416H814.861V818.031H817.188V836.751H815.121Z" fill="#757575"/>
<path d="M821.35 834.801V832.253H823.898V834.801H821.35ZM821.363 827.209V824.661H823.911V827.209H821.363Z" fill="#757575"/>
<path d="M725.948 891.946V873.226H737.778V875.423H728.262V881.286H736.218V883.483H728.262V889.749H737.778V891.946H725.948Z" fill="#757575"/>
<path d="M738.823 891.946L744.192 884.848L738.94 877.906H741.696L745.544 883.054L749.353 877.906H752.109L746.857 884.848L752.239 891.946H749.47L745.544 886.642L741.592 891.946H738.823Z" fill="#757575"/>
<path d="M760.251 892.336C758.933 892.336 757.824 892.011 756.923 891.361C756.021 890.703 755.337 889.814 754.869 888.696C754.409 887.57 754.18 886.309 754.18 884.913C754.18 883.501 754.409 882.235 754.869 881.117C755.337 879.999 756.021 879.12 756.923 878.478C757.833 877.837 758.946 877.516 760.264 877.516C761.564 877.516 762.682 877.841 763.618 878.491C764.562 879.133 765.286 880.012 765.789 881.13C766.291 882.248 766.543 883.509 766.543 884.913C766.543 886.317 766.291 887.578 765.789 888.696C765.286 889.814 764.562 890.703 763.618 891.361C762.682 892.011 761.559 892.336 760.251 892.336ZM753.79 898.186V877.906H755.857V888.241H756.117V898.186H753.79ZM759.965 890.217C760.892 890.217 761.659 889.983 762.266 889.515C762.872 889.047 763.327 888.415 763.631 887.617C763.934 886.811 764.086 885.91 764.086 884.913C764.086 883.925 763.934 883.033 763.631 882.235C763.336 881.438 762.877 880.805 762.253 880.337C761.637 879.869 760.853 879.635 759.9 879.635C758.99 879.635 758.236 879.861 757.638 880.311C757.04 880.753 756.593 881.373 756.299 882.17C756.004 882.959 755.857 883.873 755.857 884.913C755.857 885.936 756 886.85 756.286 887.656C756.58 888.454 757.031 889.082 757.638 889.541C758.244 889.992 759.02 890.217 759.965 890.217Z" fill="#757575"/>
<path d="M769.133 875.423V873.031H771.447V875.423H769.133ZM769.133 891.946V877.906H771.447V891.946H769.133Z" fill="#757575"/>
<path d="M774.827 891.946V877.906H776.894V881.299L776.556 880.857C776.721 880.424 776.933 880.025 777.193 879.661C777.462 879.297 777.761 878.998 778.09 878.764C778.454 878.47 778.866 878.244 779.325 878.088C779.785 877.932 780.253 877.841 780.729 877.815C781.206 877.781 781.652 877.811 782.068 877.906V880.077C781.583 879.947 781.05 879.913 780.469 879.973C779.889 880.034 779.351 880.246 778.857 880.61C778.407 880.931 778.056 881.321 777.804 881.78C777.562 882.24 777.393 882.738 777.297 883.275C777.202 883.804 777.154 884.346 777.154 884.9V891.946H774.827Z" fill="#757575"/>
<path d="M784.266 875.423V873.031H786.58V875.423H784.266ZM784.266 891.946V877.906H786.58V891.946H784.266Z" fill="#757575"/>
<path d="M799.958 891.946V884.913C799.958 884.246 799.897 883.605 799.776 882.989C799.663 882.374 799.46 881.824 799.165 881.338C798.879 880.844 798.489 880.454 797.995 880.168C797.51 879.882 796.894 879.739 796.149 879.739C795.568 879.739 795.04 879.839 794.563 880.038C794.095 880.229 793.692 880.524 793.354 880.922C793.016 881.321 792.752 881.824 792.561 882.43C792.379 883.028 792.288 883.735 792.288 884.549L790.767 884.081C790.767 882.721 791.01 881.555 791.495 880.584C791.989 879.605 792.678 878.855 793.562 878.335C794.455 877.807 795.503 877.542 796.708 877.542C797.618 877.542 798.394 877.685 799.035 877.971C799.676 878.257 800.209 878.639 800.634 879.115C801.059 879.583 801.392 880.112 801.635 880.701C801.878 881.282 802.047 881.876 802.142 882.482C802.246 883.08 802.298 883.648 802.298 884.185V891.946H799.958ZM789.948 891.946V877.906H792.028V881.663H792.288V891.946H789.948Z" fill="#757575"/>
<path d="M810.839 898.576C810.102 898.576 809.383 898.464 808.681 898.238C807.979 898.013 807.333 897.671 806.744 897.211C806.163 896.761 805.678 896.189 805.288 895.495L807.407 894.377C807.754 895.062 808.243 895.56 808.876 895.872C809.517 896.184 810.176 896.34 810.852 896.34C811.745 896.34 812.486 896.176 813.075 895.846C813.664 895.526 814.098 895.045 814.375 894.403C814.661 893.762 814.8 892.965 814.791 892.011V888.176H815.064V877.906H817.118V892.037C817.118 892.419 817.105 892.787 817.079 893.142C817.062 893.498 817.018 893.849 816.949 894.195C816.767 895.192 816.407 896.011 815.87 896.652C815.333 897.302 814.639 897.783 813.79 898.095C812.941 898.416 811.957 898.576 810.839 898.576ZM810.67 892.336C809.361 892.336 808.239 892.011 807.303 891.361C806.367 890.703 805.643 889.814 805.132 888.696C804.629 887.578 804.378 886.317 804.378 884.913C804.378 883.509 804.629 882.248 805.132 881.13C805.643 880.012 806.367 879.133 807.303 878.491C808.239 877.841 809.357 877.516 810.657 877.516C811.983 877.516 813.097 877.837 813.998 878.478C814.899 879.12 815.58 879.999 816.039 881.117C816.507 882.235 816.741 883.501 816.741 884.913C816.741 886.309 816.507 887.57 816.039 888.696C815.58 889.814 814.899 890.703 813.998 891.361C813.097 892.011 811.987 892.336 810.67 892.336ZM810.956 890.217C811.901 890.217 812.676 889.992 813.283 889.541C813.89 889.082 814.336 888.454 814.622 887.656C814.917 886.85 815.064 885.936 815.064 884.913C815.064 883.873 814.917 882.959 814.622 882.17C814.336 881.373 813.894 880.753 813.296 880.311C812.698 879.861 811.94 879.635 811.021 879.635C810.068 879.635 809.279 879.869 808.655 880.337C808.04 880.805 807.58 881.438 807.277 882.235C806.982 883.033 806.835 883.925 806.835 884.913C806.835 885.91 806.987 886.811 807.29 887.617C807.593 888.415 808.048 889.047 808.655 889.515C809.27 889.983 810.037 890.217 810.956 890.217Z" fill="#757575"/>
<path d="M821.268 889.996V887.448H823.816V889.996H821.268ZM821.281 882.404V879.856H823.829V882.404H821.281Z" fill="#757575"/>
<path d="M66 837.031V818.311H68.314V837.031H66Z" fill="#757575"/>
<path d="M81.6916 837.031V829.998C81.6916 829.331 81.6309 828.69 81.5096 828.074C81.3969 827.459 81.1933 826.909 80.8986 826.423C80.6126 825.929 80.2226 825.539 79.7286 825.253C79.2433 824.967 78.6279 824.824 77.8826 824.824C77.3019 824.824 76.7733 824.924 76.2966 825.123C75.8286 825.314 75.4256 825.609 75.0876 826.007C74.7496 826.406 74.4853 826.909 74.2946 827.515C74.1126 828.113 74.0216 828.82 74.0216 829.634L72.5006 829.166C72.5006 827.806 72.7433 826.64 73.2286 825.669C73.7226 824.69 74.4116 823.94 75.2956 823.42C76.1883 822.892 77.2369 822.627 78.4416 822.627C79.3516 822.627 80.1273 822.77 80.7686 823.056C81.4099 823.342 81.9429 823.724 82.3676 824.2C82.7923 824.668 83.1259 825.197 83.3686 825.786C83.6113 826.367 83.7803 826.961 83.8756 827.567C83.9796 828.165 84.0316 828.733 84.0316 829.27V837.031H81.6916ZM71.6816 837.031V822.991H73.7616V826.748H74.0216V837.031H71.6816Z" fill="#757575"/>
<path d="M92.1954 837.408C90.5227 837.408 89.1491 837.044 88.0744 836.316C87.0084 835.58 86.3541 834.553 86.1114 833.235L88.4774 832.858C88.6681 833.621 89.1057 834.228 89.7904 834.678C90.4751 835.12 91.3244 835.341 92.3384 835.341C93.3004 835.341 94.0544 835.142 94.6004 834.743C95.1464 834.345 95.4194 833.803 95.4194 833.118C95.4194 832.72 95.3284 832.399 95.1464 832.156C94.9644 831.905 94.5874 831.671 94.0154 831.454C93.4521 831.238 92.5984 830.978 91.4544 830.674C90.2151 830.345 89.2401 830.003 88.5294 829.647C87.8187 829.292 87.3117 828.88 87.0084 828.412C86.7051 827.944 86.5534 827.377 86.5534 826.709C86.5534 825.886 86.7787 825.167 87.2294 824.551C87.6801 823.927 88.3084 823.446 89.1144 823.108C89.9291 822.77 90.8737 822.601 91.9484 822.601C93.0144 822.601 93.9677 822.77 94.8084 823.108C95.6491 823.446 96.3251 823.927 96.8364 824.551C97.3564 825.167 97.6641 825.886 97.7594 826.709L95.3934 827.138C95.2807 826.384 94.9167 825.791 94.3014 825.357C93.6947 824.924 92.9104 824.694 91.9484 824.668C91.0384 824.634 90.2974 824.794 89.7254 825.149C89.1621 825.505 88.8804 825.986 88.8804 826.592C88.8804 826.93 88.9844 827.221 89.1924 827.463C89.4091 827.706 89.8034 827.936 90.3754 828.152C90.9561 828.369 91.7967 828.616 92.8974 828.893C94.1367 829.205 95.1117 829.548 95.8224 829.92C96.5417 830.284 97.0531 830.718 97.3564 831.22C97.6597 831.714 97.8114 832.325 97.8114 833.053C97.8114 834.405 97.3131 835.471 96.3164 836.251C95.3197 837.023 93.9461 837.408 92.1954 837.408Z" fill="#757575"/>
<path d="M107.998 837.031C107.166 837.196 106.342 837.261 105.528 837.226C104.722 837.2 104.002 837.04 103.37 836.745C102.737 836.442 102.256 835.974 101.927 835.341C101.649 834.787 101.498 834.228 101.472 833.664C101.454 833.092 101.446 832.447 101.446 831.727V819.091H103.76V831.623C103.76 832.195 103.764 832.685 103.773 833.092C103.79 833.5 103.881 833.851 104.046 834.145C104.358 834.7 104.852 835.025 105.528 835.12C106.212 835.216 107.036 835.19 107.998 835.042V837.031ZM98.5985 824.902V822.991H107.998V824.902H98.5985Z" fill="#757575"/>
<path d="M110.328 837.031V822.991H112.395V826.384L112.057 825.942C112.222 825.509 112.434 825.11 112.694 824.746C112.963 824.382 113.262 824.083 113.591 823.849C113.955 823.555 114.367 823.329 114.826 823.173C115.285 823.017 115.753 822.926 116.23 822.9C116.707 822.866 117.153 822.896 117.569 822.991V825.162C117.084 825.032 116.551 824.998 115.97 825.058C115.389 825.119 114.852 825.331 114.358 825.695C113.907 826.016 113.556 826.406 113.305 826.865C113.062 827.325 112.893 827.823 112.798 828.36C112.703 828.889 112.655 829.431 112.655 829.985V837.031H110.328Z" fill="#757575"/>
<path d="M124.837 837.395C123.936 837.395 123.16 837.252 122.51 836.966C121.869 836.68 121.336 836.299 120.911 835.822C120.487 835.346 120.153 834.817 119.91 834.236C119.668 833.656 119.494 833.062 119.39 832.455C119.295 831.849 119.247 831.281 119.247 830.752V822.991H121.587V830.024C121.587 830.683 121.648 831.32 121.769 831.935C121.891 832.551 122.094 833.105 122.38 833.599C122.675 834.093 123.065 834.483 123.55 834.769C124.044 835.055 124.66 835.198 125.396 835.198C125.977 835.198 126.506 835.099 126.982 834.899C127.459 834.7 127.866 834.405 128.204 834.015C128.542 833.617 128.802 833.114 128.984 832.507C129.166 831.901 129.257 831.194 129.257 830.388L130.778 830.856C130.778 832.208 130.531 833.374 130.037 834.353C129.552 835.333 128.863 836.087 127.97 836.615C127.086 837.135 126.042 837.395 124.837 837.395ZM129.517 837.031V833.274H129.257V822.991H131.584V837.031H129.517Z" fill="#757575"/>
<path d="M140.619 837.421C139.198 837.421 137.989 837.105 136.992 836.472C136.004 835.831 135.25 834.951 134.73 833.833C134.21 832.715 133.941 831.441 133.924 830.011C133.941 828.547 134.214 827.26 134.743 826.15C135.28 825.032 136.047 824.161 137.044 823.537C138.041 822.913 139.241 822.601 140.645 822.601C142.127 822.601 143.401 822.965 144.467 823.693C145.542 824.421 146.261 825.418 146.625 826.683L144.337 827.372C144.042 826.558 143.561 825.925 142.894 825.474C142.235 825.024 141.477 824.798 140.619 824.798C139.657 824.798 138.864 825.024 138.24 825.474C137.616 825.916 137.152 826.532 136.849 827.32C136.546 828.1 136.39 828.997 136.381 830.011C136.398 831.571 136.758 832.832 137.46 833.794C138.171 834.748 139.224 835.224 140.619 835.224C141.538 835.224 142.3 835.016 142.907 834.6C143.514 834.176 143.973 833.565 144.285 832.767L146.625 833.378C146.14 834.687 145.381 835.688 144.35 836.381C143.319 837.075 142.075 837.421 140.619 837.421Z" fill="#757575"/>
<path d="M156.597 837.031C155.765 837.196 154.942 837.261 154.127 837.226C153.321 837.2 152.602 837.04 151.969 836.745C151.337 836.442 150.856 835.974 150.526 835.341C150.249 834.787 150.097 834.228 150.071 833.664C150.054 833.092 150.045 832.447 150.045 831.727V819.091H152.359V831.623C152.359 832.195 152.364 832.685 152.372 833.092C152.39 833.5 152.481 833.851 152.645 834.145C152.957 834.7 153.451 835.025 154.127 835.12C154.812 835.216 155.635 835.19 156.597 835.042V837.031ZM147.198 824.902V822.991H156.597V824.902H147.198Z" fill="#757575"/>
<path d="M164.324 837.421C162.928 837.421 161.724 837.105 160.71 836.472C159.704 835.84 158.929 834.964 158.383 833.846C157.837 832.728 157.564 831.446 157.564 829.998C157.564 828.525 157.841 827.234 158.396 826.124C158.95 825.015 159.735 824.153 160.749 823.537C161.763 822.913 162.954 822.601 164.324 822.601C165.728 822.601 166.937 822.918 167.951 823.55C168.965 824.174 169.74 825.045 170.278 826.163C170.824 827.273 171.097 828.551 171.097 829.998C171.097 831.463 170.824 832.754 170.278 833.872C169.732 834.982 168.952 835.853 167.938 836.485C166.924 837.109 165.719 837.421 164.324 837.421ZM164.324 835.224C165.78 835.224 166.863 834.739 167.574 833.768C168.284 832.798 168.64 831.541 168.64 829.998C168.64 828.412 168.28 827.151 167.561 826.215C166.841 825.271 165.762 824.798 164.324 824.798C163.344 824.798 162.538 825.019 161.906 825.461C161.273 825.903 160.801 826.514 160.489 827.294C160.177 828.074 160.021 828.976 160.021 829.998C160.021 831.576 160.385 832.841 161.113 833.794C161.841 834.748 162.911 835.224 164.324 835.224Z" fill="#757575"/>
<path d="M173.439 837.031V822.991H175.506V826.384L175.168 825.942C175.333 825.509 175.545 825.11 175.805 824.746C176.074 824.382 176.373 824.083 176.702 823.849C177.066 823.555 177.478 823.329 177.937 823.173C178.396 823.017 178.864 822.926 179.341 822.9C179.818 822.866 180.264 822.896 180.68 822.991V825.162C180.195 825.032 179.662 824.998 179.081 825.058C178.5 825.119 177.963 825.331 177.469 825.695C177.018 826.016 176.667 826.406 176.416 826.865C176.173 827.325 176.004 827.823 175.909 828.36C175.814 828.889 175.766 829.431 175.766 829.985V837.031H173.439Z" fill="#757575"/>
<path d="M183.658 835.081V832.533H186.206V835.081H183.658ZM183.671 827.489V824.941H186.219V827.489H183.671Z" fill="#757575"/>
<line x1="65" y1="378.031" x2="1013" y2="378.031" stroke="black" stroke-opacity="0.24" stroke-width="2"/>
<rect x="65" y="650" width="950" height="112" fill="#BEE9EC"/>
<rect x="1.5" y="1.5" width="1077" height="1077" stroke="#5E94F4" stroke-width="3"/>
<defs>
<filter id="filter0_f_54_62" x="-609.7" y="-573.339" width="1257.14" height="1257.14" filterUnits="userSpaceOnUse" color-interpolation-filters="sRGB">
<feFlood flood-opacity="0" result="BackgroundImageFix"/>
<feBlend mode="normal" in="SourceGraphic" in2="BackgroundImageFix" result="shape"/>
<feGaussianBlur stdDeviation="100" result="effect1_foregroundBlur_54_62"/>
</filter>
<linearGradient id="paint0_linear_54_62" x1="-346.184" y1="-472.677" x2="372.694" y2="585.736" gradientUnits="userSpaceOnUse">
<stop stop-color="#618FF6"/>
<stop offset="1" stop-color="#57CCDA"/>
</linearGradient>
</defs>
</svg>
