<svg width="462" height="65" viewBox="0 0 462 65" fill="none" xmlns="http://www.w3.org/2000/svg">
<path d="M0 6.11582C0 2.73815 2.67466 0 5.97403 0H57.5189C60.8183 0 63.493 2.73815 63.493 6.11582V58.8842C63.493 62.2619 60.8183 65 57.5189 65H5.97403C2.67466 65 0 62.2619 0 58.8842V6.11582Z" fill="black"/>
<path d="M110.631 15.909V49.0972C110.631 49.3499 110.445 49.6028 110.135 49.6028H106.727C105.178 49.6028 103.691 48.781 102.823 47.4535L87.4554 23.2421L87.9512 35.3161V49.1603C87.9512 49.4132 87.7652 49.6661 87.4554 49.6661H82.9937C82.7459 49.6661 82.498 49.4764 82.498 49.1603V15.909C82.498 15.6562 82.6839 15.4033 82.9937 15.4033H86.3399C87.8891 15.4033 89.3764 16.2252 90.2439 17.5526L105.612 41.7009L105.116 29.6267V15.909C105.116 15.6562 105.302 15.4033 105.612 15.4033H110.073C110.445 15.4033 110.631 15.5929 110.631 15.909Z" fill="black"/>
<path d="M148.211 49.5396H143.502C143.192 49.5396 142.944 49.2236 143.068 48.9074L155.586 15.8458C155.709 15.5929 155.958 15.4033 156.205 15.4033H162.154C162.463 15.4033 162.712 15.5929 162.773 15.8458L175.353 48.9074C175.477 49.2236 175.229 49.5396 174.919 49.5396H170.21C170.023 49.5396 169.838 49.4132 169.776 49.2236L159.675 22.0409C159.552 21.6617 158.931 21.6617 158.807 22.0409L148.707 49.2236C148.583 49.4132 148.398 49.5396 148.211 49.5396Z" fill="black"/>
<path d="M205.497 48.781L196.077 36.5173C201.407 35.5059 204.505 31.8393 204.505 26.2132C204.505 19.7651 200.416 15.4033 193.103 15.4033H179.966C179.595 15.4033 179.285 15.7194 179.285 16.0987C179.285 18.6272 181.268 20.6502 183.746 20.6502H192.607C197.007 20.6502 199.114 22.926 199.114 26.2764C199.114 29.6267 197.069 31.9025 192.607 31.9025H180.091C179.719 31.9025 179.408 32.2187 179.408 32.5979V49.0339C179.408 49.2868 179.595 49.5396 179.904 49.5396H184.366C184.614 49.5396 184.862 49.3499 184.862 49.0339V36.8333H190.005L198.184 47.7064C199.052 48.9074 200.416 49.5396 201.903 49.5396H205.311C205.559 49.5396 205.744 49.0972 205.497 48.781Z" fill="black"/>
<path d="M138.515 15.4033H117.757C117.385 15.4033 117.137 15.6562 117.137 16.0354C117.137 18.5641 119.182 20.6502 121.661 20.6502H138.515C138.764 20.6502 139.011 20.4605 139.011 20.1445V15.8458C138.949 15.5929 138.764 15.4033 138.515 15.4033ZM138.515 44.2927H123.024C122.776 44.2927 122.528 44.1031 122.528 43.7871V35.253C122.528 35.0001 122.714 34.7472 123.024 34.7472H137.338C137.587 34.7472 137.834 34.5576 137.834 34.2415V29.9429C137.834 29.69 137.649 29.4371 137.338 29.4371H117.819C117.447 29.4371 117.137 29.7532 117.137 30.1325V48.781C117.137 49.1603 117.447 49.4764 117.819 49.4764H138.515C138.764 49.4764 139.011 49.2868 139.011 48.9707V44.6721C138.949 44.4823 138.764 44.2927 138.515 44.2927Z" fill="black"/>
<path d="M43.07 15.2318L35.2292 27.1574C34.687 27.9695 35.7297 28.9526 36.4804 28.2687L44.1961 21.3869C44.4046 21.2159 44.6967 21.3442 44.6967 21.6434V43.1435C44.6967 43.4427 44.3213 43.571 44.1545 43.3572L20.7988 14.7189C20.0481 13.7785 18.9637 13.2656 17.7543 13.2656H16.9201C14.7514 13.2656 12.958 15.1036 12.958 17.369V47.6317C12.958 49.897 14.7514 51.735 16.9618 51.735C18.3381 51.735 19.631 51.0084 20.3818 49.7688L28.2226 37.8433C28.7648 37.0312 27.7221 36.0481 26.9714 36.732L19.2557 43.571C19.0472 43.7419 18.7552 43.6137 18.7552 43.3145V21.8571C18.7552 21.5579 19.1306 21.4296 19.2974 21.6434L42.653 50.2817C43.4037 51.2221 44.5298 51.735 45.6976 51.735H46.5317C48.7421 51.735 50.5355 49.897 50.5355 47.6317V17.369C50.4938 15.1036 48.7004 13.2656 46.49 13.2656C45.1137 13.2656 43.8208 13.9923 43.07 15.2318Z" fill="white"/>
<path d="M252.969 15.88V36.3395C252.969 40.7296 251.782 44.0306 249.407 46.2425C247.032 48.4543 243.574 49.5602 239.031 49.5602C234.556 49.5602 231.115 48.4543 228.706 46.2425C226.331 44.0306 225.144 40.7296 225.144 36.3395V15.88H230.667V35.686C230.667 38.8362 231.339 41.1653 232.681 42.6734C234.057 44.1479 236.174 44.8852 239.031 44.8852C241.922 44.8852 244.038 44.1479 245.38 42.6734C246.757 41.1653 247.445 38.8362 247.445 35.686V15.88H252.969Z" fill="black"/>
<path d="M260.407 49.0575V23.923H265.312L265.57 28.2462C266.43 26.5705 267.617 25.3473 269.132 24.5765C270.68 23.8057 272.401 23.4203 274.294 23.4203C276.118 23.4203 277.753 23.7722 279.199 24.476C280.678 25.1462 281.849 26.1851 282.709 27.5927C283.569 28.9667 284 30.6926 284 32.7704V49.0575H278.476V34.4292C278.476 31.9493 277.942 30.2402 276.875 29.3018C275.843 28.3299 274.535 27.844 272.952 27.844C271.816 27.844 270.715 28.0953 269.648 28.598C268.581 29.1007 267.686 29.9385 266.963 31.1115C266.275 32.2509 265.931 33.7757 265.931 35.686V49.0575H260.407Z" fill="black"/>
<path d="M294.125 19.7004C292.921 19.7004 291.991 19.4156 291.338 18.8459C290.718 18.2426 290.408 17.4048 290.408 16.3324C290.408 15.26 290.718 14.4389 291.338 13.8692C291.991 13.2995 292.921 13.0146 294.125 13.0146C295.295 13.0146 296.19 13.2995 296.81 13.8692C297.464 14.4389 297.791 15.26 297.791 16.3324C297.791 17.4048 297.464 18.2426 296.81 18.8459C296.19 19.4156 295.295 19.7004 294.125 19.7004ZM296.861 23.923V49.0575H291.338V23.923H296.861Z" fill="black"/>
<path d="M321.456 23.923H327.238L316.965 49.0575H310.925L300.6 23.923H306.691L313.97 44.3825L321.456 23.923Z" fill="black"/>
<path d="M342.121 49.5602C339.54 49.5602 337.268 49.0408 335.307 48.0019C333.379 46.963 331.865 45.4717 330.764 43.5279C329.662 41.5507 329.112 39.2048 329.112 36.4903C329.112 33.7757 329.645 31.4466 330.712 29.5029C331.813 27.5256 333.311 26.0176 335.204 24.9787C337.131 23.9398 339.333 23.4203 341.811 23.4203C344.324 23.4203 346.458 23.923 348.213 24.9284C349.968 25.9338 351.31 27.3078 352.24 29.0505C353.169 30.7931 353.633 32.7704 353.633 34.9822C353.633 35.6189 353.616 36.2054 353.582 36.7416C353.547 37.2778 353.496 37.7302 353.427 38.0989H334.532C334.773 40.4448 335.548 42.2377 336.855 43.4777C338.198 44.6841 339.919 45.2873 342.018 45.2873C343.739 45.2873 345.133 44.969 346.2 44.3322C347.266 43.6955 348.11 42.8074 348.729 41.668L353.117 43.6787C352.222 45.5219 350.794 46.963 348.832 48.0019C346.905 49.0408 344.668 49.5602 342.121 49.5602ZM341.708 27.6932C339.815 27.6932 338.249 28.2294 337.01 29.3018C335.806 30.3742 335.031 31.9325 334.687 33.9768H348.265C348.127 31.9661 347.473 30.4245 346.303 29.3521C345.133 28.2462 343.601 27.6932 341.708 27.6932Z" fill="black"/>
<path d="M359.577 49.0575V23.923H364.275L364.791 28.4472C366.202 25.096 368.904 23.4203 372.896 23.4203C373.412 23.4203 373.928 23.4706 374.445 23.5711C374.961 23.6382 375.391 23.7555 375.735 23.923L374.961 28.6483C374.582 28.5143 374.152 28.4137 373.67 28.3467C373.223 28.2462 372.603 28.1959 371.812 28.1959C370.71 28.1959 369.644 28.4807 368.611 29.0505C367.613 29.5867 366.77 30.4245 366.081 31.5639C365.428 32.6698 365.101 34.0606 365.101 35.7362V49.0575H359.577Z" fill="black"/>
<path d="M388.872 49.5602C386.29 49.5602 383.933 49.0743 381.799 48.1024C379.665 47.1305 377.979 45.7565 376.74 43.9804L380.56 40.7631C381.317 42.1372 382.401 43.2431 383.812 44.0809C385.258 44.8852 386.979 45.2873 388.975 45.2873C390.558 45.2873 391.814 45.0192 392.744 44.483C393.673 43.9468 394.137 43.1928 394.137 42.2209C394.137 41.5842 393.914 41.0312 393.466 40.5621C393.053 40.0594 392.244 39.674 391.04 39.4059L385.619 38.3C382.866 37.7638 380.904 36.8924 379.734 35.686C378.564 34.4795 377.979 32.9714 377.979 31.1618C377.979 29.7877 378.392 28.5143 379.218 27.3413C380.078 26.1684 381.3 25.23 382.883 24.5262C384.466 23.789 386.376 23.4203 388.614 23.4203C391.16 23.4203 393.346 23.8727 395.17 24.7776C397.028 25.6489 398.439 26.9056 399.403 28.5478L395.583 31.6644C394.895 30.3239 393.914 29.3353 392.64 28.6986C391.401 28.0283 390.093 27.6932 388.717 27.6932C387.03 27.6932 385.723 27.9948 384.793 28.598C383.898 29.1678 383.451 29.9218 383.451 30.8601C383.451 31.4969 383.709 32.0834 384.225 32.6196C384.742 33.1222 385.671 33.5076 387.013 33.7757L392.898 34.9822C395.376 35.4514 397.114 36.2557 398.112 37.3951C399.145 38.501 399.661 39.8583 399.661 41.4669C399.661 43.8798 398.698 45.8403 396.77 47.3484C394.843 48.8229 392.21 49.5602 388.872 49.5602Z" fill="black"/>
<path d="M408.143 19.7004C406.938 19.7004 406.009 19.4156 405.355 18.8459C404.736 18.2426 404.426 17.4048 404.426 16.3324C404.426 15.26 404.736 14.4389 405.355 13.8692C406.009 13.2995 406.938 13.0146 408.143 13.0146C409.313 13.0146 410.208 13.2995 410.827 13.8692C411.481 14.4389 411.808 15.26 411.808 16.3324C411.808 17.4048 411.481 18.2426 410.827 18.8459C410.208 19.4156 409.313 19.7004 408.143 19.7004ZM410.879 23.923V49.0575H405.355V23.923H410.879Z" fill="black"/>
<path d="M434.906 23.923V28.1456H426.026V41.5172C426.026 42.7236 426.371 43.6285 427.059 44.2317C427.747 44.8014 428.642 45.0863 429.743 45.0863C430.707 45.0863 431.516 44.9522 432.17 44.6841C432.858 44.3825 433.495 43.9804 434.08 43.4777L435.319 47.3986C434.527 48.0689 433.546 48.6051 432.376 49.0073C431.241 49.3759 429.967 49.5602 428.556 49.5602C426.285 49.5602 424.374 49.024 422.826 47.9516C421.277 46.8457 420.503 45.0025 420.503 42.422V28.1456H415.547V23.923H420.503V18.0415L426.026 16.5335V23.923H434.906Z" fill="black"/>
<path d="M462 23.923L450.694 52.0234C449.558 54.939 448.268 56.9665 446.822 58.1059C445.377 59.2789 443.518 59.8654 441.247 59.8654C439.973 59.8654 438.82 59.7145 437.788 59.4129C436.756 59.1113 435.843 58.6757 435.052 58.1059L436.394 53.9336C437.633 55.006 439.13 55.5422 440.885 55.5422C441.815 55.5422 442.641 55.3076 443.363 54.8385C444.121 54.3693 444.792 53.3974 445.377 51.9229L446.513 49.2083L443.776 42.975L435.723 23.923H441.918L447.648 39.7075L449.145 44.4328L450.849 39.2551L456.27 23.923H462Z" fill="black"/>
</svg>
